<svg xmlns="http://www.w3.org/2000/svg" viewBox="0 0 1200 900" role="img" aria-labelledby="title desc">
  <title id="title">Crystal bracelets and gemstones arranged on silk</title>
  <desc id="desc">An editorial still life of crystal bracelets, loose stones, and warm jewellery studio light.</desc>
  <defs>
    <radialGradient id="silk" cx="45%" cy="35%" r="70%">
      <stop offset="0" stop-color="#faf5ea"/>
      <stop offset="0.42" stop-color="#e8d7bd"/>
      <stop offset="1" stop-color="#9f4f50"/>
    </radialGradient>
    <radialGradient id="jade" cx="35%" cy="30%" r="70%">
      <stop offset="0" stop-color="#d7fff1"/>
      <stop offset="0.48" stop-color="#55a98d"/>
      <stop offset="1" stop-color="#175548"/>
    </radialGradient>
    <radialGradient id="amethyst" cx="35%" cy="28%" r="70%">
      <stop offset="0" stop-color="#fbecff"/>
      <stop offset="0.52" stop-color="#9c69bd"/>
      <stop offset="1" stop-color="#3a1d47"/>
    </radialGradient>
    <radialGradient id="rose" cx="34%" cy="28%" r="70%">
      <stop offset="0" stop-color="#fff1ec"/>
      <stop offset="0.52" stop-color="#c66d73"/>
      <stop offset="1" stop-color="#6d2836"/>
    </radialGradient>
    <radialGradient id="citrine" cx="30%" cy="25%" r="70%">
      <stop offset="0" stop-color="#fff9dc"/>
      <stop offset="0.5" stop-color="#d5a83d"/>
      <stop offset="1" stop-color="#78520f"/>
    </radialGradient>
    <filter id="softShadow" x="-40%" y="-40%" width="180%" height="180%">
      <feDropShadow dx="0" dy="22" stdDeviation="22" flood-color="#2e1f1f" flood-opacity="0.24"/>
    </filter>
  </defs>
  <rect width="1200" height="900" fill="url(#silk)"/>
  <path d="M0 620c165-95 309-89 444 20 142 116 307 129 496 30 113-59 201-69 260-30v260H0Z" fill="#f4e6d2" opacity=".72"/>
  <path d="M-40 235c150 55 288 46 414-28 161-94 333-95 516-5 119 59 232 64 350 18v204c-142 48-271 40-386-25-153-86-296-83-430 8-141 96-296 108-464 37Z" fill="#b73f50" opacity=".18"/>
  <g filter="url(#softShadow)">
    <ellipse cx="592" cy="514" rx="318" ry="166" fill="none" stroke="#2f2926" stroke-width="20" opacity=".18"/>
    <g transform="translate(592 514)">
      <circle cx="-265" cy="-14" r="43" fill="url(#jade)"/>
      <circle cx="-218" cy="-75" r="41" fill="url(#amethyst)"/>
      <circle cx="-145" cy="-116" r="45" fill="url(#rose)"/>
      <circle cx="-54" cy="-133" r="42" fill="url(#citrine)"/>
      <circle cx="38" cy="-124" r="46" fill="url(#jade)"/>
      <circle cx="125" cy="-88" r="41" fill="url(#amethyst)"/>
      <circle cx="191" cy="-29" r="45" fill="url(#rose)"/>
      <circle cx="227" cy="50" r="42" fill="url(#citrine)"/>
      <circle cx="202" cy="124" r="45" fill="url(#jade)"/>
      <circle cx="128" cy="171" r="41" fill="url(#amethyst)"/>
      <circle cx="34" cy="187" r="45" fill="url(#rose)"/>
      <circle cx="-61" cy="174" r="42" fill="url(#citrine)"/>
      <circle cx="-146" cy="133" r="45" fill="url(#jade)"/>
      <circle cx="-211" cy="70" r="41" fill="url(#amethyst)"/>
      <circle cx="-242" cy="25" r="44" fill="url(#rose)"/>
      <circle cx="0" cy="16" r="76" fill="#f6e7d7" opacity=".38"/>
      <circle cx="0" cy="16" r="28" fill="#d3a94e"/>
    </g>
  </g>
  <g opacity=".92">
    <path d="M855 238 928 358l-73 120-73-120Z" fill="url(#jade)" filter="url(#softShadow)"/>
    <path d="M862 252 928 358l-66-22Z" fill="#e7fff5" opacity=".45"/>
    <path d="M1002 474 1063 573l-61 99-61-99Z" fill="url(#amethyst)" filter="url(#softShadow)"/>
    <path d="M178 392 242 497l-64 106-64-106Z" fill="url(#citrine)" filter="url(#softShadow)"/>
    <circle cx="959" cy="186" r="34" fill="url(#rose)"/>
    <circle cx="283" cy="253" r="29" fill="url(#amethyst)"/>
    <circle cx="766" cy="699" r="27" fill="url(#jade)"/>
  </g>
</svg>
